<svg xmlns="http://www.w3.org/2000/svg" viewBox="0 0 2171.86 604"><defs><style>.cls-1{fill:#dc0101;}.cls-2{fill:#9c0001;}.cls-3{fill:#fdac00;}</style></defs><title>Mesa de trabajo 1 copy 2</title><g id="OBJECTS"><path d="M843.19,467.08v-2.61h35a18,18,0,0,0,10.29-2.79,17.44,17.44,0,0,0,6.2-7.11,20.44,20.44,0,0,0,2-8.87,20.12,20.12,0,0,0-1.93-8.64,15.85,15.85,0,0,0-5.92-6.65,18.13,18.13,0,0,0-10-2.56H861.27A21.43,21.43,0,0,1,849.84,425a18.59,18.59,0,0,1-6.94-7.4,20.49,20.49,0,0,1-2.33-9.44,21.9,21.9,0,0,1,2.39-9.89,19.38,19.38,0,0,1,7.16-7.79,21.77,21.77,0,0,1,11.83-3h32.52v2.61H862a18.51,18.51,0,0,0-10.06,2.62,17.4,17.4,0,0,0-6.31,6.71,17.81,17.81,0,0,0-2.16,8.41,18.42,18.42,0,0,0,2,8.25,16.21,16.21,0,0,0,6,6.59,17.89,17.89,0,0,0,9.89,2.56h17.62a21.59,21.59,0,0,1,11.55,2.85,18,18,0,0,1,6.88,7.44,22,22,0,0,1,2.27,9.84,24.3,24.3,0,0,1-2.33,10.35,19.68,19.68,0,0,1-7.11,8.19,21.07,21.07,0,0,1-11.94,3.18Z"/><path d="M939.39,490.17V468.56a27.32,27.32,0,0,1-11.6-3.3,23.31,23.31,0,0,1-8.87-8.53,25.68,25.68,0,0,1-3.41-13.64v-34h3v33.55a24.21,24.21,0,0,0,3.24,13,20.67,20.67,0,0,0,8.36,7.79,23.65,23.65,0,0,0,10.69,2.55,24,24,0,0,0,11-2.61,21.36,21.36,0,0,0,8.47-7.79q3.3-5.18,3.3-12.91V409.08h2.73v34a26,26,0,0,1-3.41,13.76,22.81,22.81,0,0,1-8.93,8.47,28.22,28.22,0,0,1-11.65,3.24v21.61Z"/><path d="M985.56,467.08v-34q0-8.54,3.7-14.16a23.75,23.75,0,0,1,9.49-8.47,27.13,27.13,0,0,1,24.17,0,23.89,23.89,0,0,1,9.44,8.47q3.69,5.63,3.69,14.16v34h-2.84V433.53q0-7.72-3.24-12.9a21,21,0,0,0-8.42-7.79,23.69,23.69,0,0,0-21.54-.06,20.65,20.65,0,0,0-8.36,7.73q-3.24,5.17-3.24,13v33.55Z"/><path d="M1048,411.7v-2.62h38.21v2.62Zm26.73,55.38q-7.74,0-12.11-4.43t-4.38-12.06V394.53h2.84v54.92q0,7.29,3.58,11.15t10.86,3.87h10.24v2.61Z"/><path d="M1124.75,468.56a29.11,29.11,0,0,1-15.69-4,26,26,0,0,1-9.84-11,35.41,35.41,0,0,1-3.35-15.58,32.77,32.77,0,0,1,3.58-15.47,27,27,0,0,1,10.23-10.8,30.4,30.4,0,0,1,15.87-4,28.21,28.21,0,0,1,14.84,3.87,27.4,27.4,0,0,1,10.06,10.46,30.51,30.51,0,0,1,3.64,15v30h-2.84V452h-.34a28.07,28.07,0,0,1-5.12,7.5,29.33,29.33,0,0,1-8.81,6.48A27.17,27.17,0,0,1,1124.75,468.56Zm0-2.5a25.34,25.34,0,0,0,13.48-3.64,26.38,26.38,0,0,0,9.49-10.07,29.06,29.06,0,0,0,3.42-14.61,30.63,30.63,0,0,0-3.19-14.16,24.36,24.36,0,0,0-9-9.78,25.54,25.54,0,0,0-13.65-3.58,26.22,26.22,0,0,0-14.21,3.7A24.43,24.43,0,0,0,1102,424a32.49,32.49,0,0,0-3.19,14.61,31.28,31.28,0,0,0,3,13.76,23.85,23.85,0,0,0,8.81,9.95A25.67,25.67,0,0,0,1124.75,466.06Z"/><path d="M1170.81,467.08l23.65-28.88a29.32,29.32,0,0,1-12-4.38,27.55,27.55,0,0,1-8.65-8.64,20.54,20.54,0,0,1-3.24-11.09V409.2h2.84v4.89a18,18,0,0,0,3.59,11,25.29,25.29,0,0,0,9.38,7.68,31.47,31.47,0,0,0,12.28,3.18l21.61-26.72h3.52l-22.17,27.29a32.81,32.81,0,0,1,12.11,4.95,26.49,26.49,0,0,1,8.3,8.87,23.33,23.33,0,0,1,3,11.77v5h-2.84v-5a20.93,20.93,0,0,0-3.13-11.37,24.15,24.15,0,0,0-8.64-8.19,32.36,32.36,0,0,0-12.79-4l-23.09,28.54Z"/><path d="M1273.16,396.35a3.12,3.12,0,0,1-3-3,2.76,2.76,0,0,1,.91-2.1,2.91,2.91,0,0,1,2.05-.86,2.92,2.92,0,0,1,2.95,3,2.92,2.92,0,0,1-.85,2.05A2.76,2.76,0,0,1,1273.16,396.35Zm-1.48,70.73v-58h2.84v58Z"/><path d="M1291.58,467.08v-2.61h26.72a14.88,14.88,0,0,0,8.19-2.11,13.91,13.91,0,0,0,5-5.4,14.45,14.45,0,0,0,1.71-6.71,13.43,13.43,0,0,0-1.42-6,11.5,11.5,0,0,0-4.38-4.66,14.16,14.16,0,0,0-7.51-1.82h-13a19.34,19.34,0,0,1-9.27-2,13,13,0,0,1-5.46-5.23,14,14,0,0,1-1.76-6.77,15.08,15.08,0,0,1,1.76-7.1,13.9,13.9,0,0,1,5.23-5.46,16.08,16.08,0,0,1,8.47-2.11h25.82v2.62h-25.47q-6.26,0-9.5,3.7a12.19,12.19,0,0,0-3.24,8.24,11.16,11.16,0,0,0,3.35,7.85q3.36,3.52,10.41,3.52h11.6a20.43,20.43,0,0,1,10,2.16,13.93,13.93,0,0,1,5.68,5.57,15.32,15.32,0,0,1,1.82,7.28,17.11,17.11,0,0,1-2.05,8,17.48,17.48,0,0,1-5.79,6.48,15.76,15.76,0,0,1-9.1,2.56Z"/><path d="M1383.92,396.35a3.12,3.12,0,0,1-3-3,2.76,2.76,0,0,1,.91-2.1,2.91,2.91,0,0,1,2.05-.86,2.92,2.92,0,0,1,2.95,3,2.92,2.92,0,0,1-.85,2.05A2.76,2.76,0,0,1,1383.92,396.35Zm-1.48,70.73v-58h2.84v58Z"/><path d="M1404.61,467.08V431.6a25.78,25.78,0,0,1,2.79-12,21.78,21.78,0,0,1,8-8.64,22.77,22.77,0,0,1,12.34-3.24A30.4,30.4,0,0,1,1436,409a21,21,0,0,1,8.47,4.94q3.91,3.64,5.74,10.58h.12q1.92-6.93,5.91-10.58a21.34,21.34,0,0,1,8.53-4.94,30.34,30.34,0,0,1,8.3-1.31,22.77,22.77,0,0,1,12.34,3.24,21.42,21.42,0,0,1,7.9,8.64,26.24,26.24,0,0,1,2.73,12v35.48h-2.73V431.6a22.21,22.21,0,0,0-2.67-11,20.4,20.4,0,0,0-7.22-7.56,19.62,19.62,0,0,0-10.46-2.79,21.05,21.05,0,0,0-10.86,2.84,20.79,20.79,0,0,0-7.62,7.68,21.31,21.31,0,0,0-2.79,10.86v35.48h-2.84V431.6a21,21,0,0,0-2.85-10.86,21.46,21.46,0,0,0-7.61-7.68,20.8,20.8,0,0,0-10.81-2.84A19.67,19.67,0,0,0,1410,420.57a22.51,22.51,0,0,0-2.62,11v35.48Z"/><path d="M1554.26,409.48a27.66,27.66,0,0,1,9.27,5.69,27.17,27.17,0,0,1,6.6,9.55,33.89,33.89,0,0,1,2.44,13.36q0,9.78-4.09,16.55a27.73,27.73,0,0,1-10.63,10.29,29,29,0,0,1-13.93,3.53,26.43,26.43,0,0,1-10.58-2.17,29.68,29.68,0,0,1-8.87-5.85,25.44,25.44,0,0,1-5.91-8.47h-.34V492.1h-2.85V437.17q0-9.78,4.15-16.37a26.76,26.76,0,0,1,10.69-9.9,29.92,29.92,0,0,1,24-1.42Zm-22.8,3.81a24.23,24.23,0,0,0-9.55,9.21q-3.69,6.15-3.69,15.35t3.75,15.53a24.72,24.72,0,0,0,9.66,9.32,26.15,26.15,0,0,0,12.4,3.13,24.79,24.79,0,0,0,12.34-3.3A26.3,26.3,0,0,0,1566,453a28.37,28.37,0,0,0,3.75-15q0-9.21-3.81-15.41a25,25,0,0,0-9.78-9.32,26.55,26.55,0,0,0-12.45-3.13A26.09,26.09,0,0,0,1531.46,413.29Z"/><path d="M1615.56,468.56a28.13,28.13,0,0,1-25.59-15,33.76,33.76,0,0,1,0-30.93,29.08,29.08,0,0,1,51.17-.06,33.81,33.81,0,0,1,0,31,28.1,28.1,0,0,1-25.58,15Zm0-2.62a25.53,25.53,0,0,0,13.7-3.69,26.19,26.19,0,0,0,9.38-10,31.1,31.1,0,0,0,0-28.32,26.16,26.16,0,0,0-9.38-10,27.23,27.23,0,0,0-27.41,0,26.24,26.24,0,0,0-9.38,10,31.1,31.1,0,0,0,0,28.32,26.27,26.27,0,0,0,9.38,10A25.54,25.54,0,0,0,1615.56,465.94Z"/><path d="M1661.38,467.08V425.57q0-7.72,4.38-12.11c2.92-2.91,7-4.38,12.11-4.38h5.92v2.62h-5.12q-7.28,0-10.86,3.87t-3.58,11.14v40.37Z"/><path d="M1690,411.7v-2.62h38.21v2.62Zm26.72,55.38q-7.73,0-12.11-4.43t-4.38-12.06V394.53h2.85v54.92q0,7.29,3.58,11.15t10.86,3.87h10.23v2.61Z"/><path d="M1766.8,468.56a29.11,29.11,0,0,1-15.69-4,25.92,25.92,0,0,1-9.84-11,35.27,35.27,0,0,1-3.36-15.58,32.77,32.77,0,0,1,3.59-15.47,26.92,26.92,0,0,1,10.23-10.8,30.38,30.38,0,0,1,15.87-4,28.18,28.18,0,0,1,14.83,3.87,27.42,27.42,0,0,1,10.07,10.46,30.62,30.62,0,0,1,3.64,15v30h-2.84V452H1793a28,28,0,0,1-5.11,7.5,29.26,29.26,0,0,1-8.82,6.48A27.13,27.13,0,0,1,1766.8,468.56Zm0-2.5a25.33,25.33,0,0,0,13.47-3.64,26.41,26.41,0,0,0,9.5-10.07,29,29,0,0,0,3.41-14.61,30.63,30.63,0,0,0-3.18-14.16,24.39,24.39,0,0,0-9-9.78,25.48,25.48,0,0,0-13.64-3.58,26.23,26.23,0,0,0-14.22,3.7,24.57,24.57,0,0,0-9.1,10.12,32.48,32.48,0,0,0-3.18,14.61,31.28,31.28,0,0,0,3,13.76,23.8,23.8,0,0,0,8.82,9.95A25.62,25.62,0,0,0,1766.8,466.06Z"/><path d="M1815.47,467.08v-34q0-8.54,3.7-14.16a23.75,23.75,0,0,1,9.49-8.47,27.13,27.13,0,0,1,24.17,0,23.86,23.86,0,0,1,9.43,8.47q3.71,5.63,3.7,14.16v34h-2.84V433.53q0-7.72-3.24-12.9a21,21,0,0,0-8.42-7.79,23.71,23.71,0,0,0-21.55-.06,20.72,20.72,0,0,0-8.36,7.73q-3.24,5.17-3.24,13v33.55Z"/><path d="M1877.9,411.7v-2.62h38.21v2.62Zm26.73,55.38q-7.74,0-12.12-4.43t-4.37-12.06V394.53H1891v54.92q0,7.29,3.58,11.15t10.86,3.87h10.24v2.61Z"/><path d="M901.13,176.23A72.5,72.5,0,0,1,925,160.15a81.46,81.46,0,0,1,30.29-6.09h30v-32.8H954.37q-25.61.31-46.06,9.06A111,111,0,0,0,873,153.9a102.85,102.85,0,0,0-22.8,34.51,115.63,115.63,0,0,0,0,84.32A102.85,102.85,0,0,0,873,307.24a108.8,108.8,0,0,0,35.29,23.42q20.45,8.59,46.06,9.22h30.92V306.77h-30A77.39,77.39,0,0,1,925,301a72.56,72.56,0,0,1-39.67-40.29,83.63,83.63,0,0,1,0-60.28A73.26,73.26,0,0,1,901.13,176.23Z"/><path d="M1168.14,217.92a82.45,82.45,0,0,0-30.14-30q-19.05-11.08-43.41-11.09-24.67,0-43.72,11.09a82.45,82.45,0,0,0-30.14,30q-11.09,18.9-11.08,42.32t11.08,42.32a82.38,82.38,0,0,0,30.14,30q19.05,11.08,43.72,11.08,24.36,0,43.41-11.08a82.38,82.38,0,0,0,30.14-30q11.08-18.9,11.09-42.32T1168.14,217.92Zm-31.07,69A46.73,46.73,0,0,1,1120.2,306q-10.93,7-25.61,7-15,0-25.76-7A48.2,48.2,0,0,1,1052,286.94a61.57,61.57,0,0,1,0-53.4,48.27,48.27,0,0,1,16.87-19q10.77-7,25.76-7,14.69,0,25.61,7a46.79,46.79,0,0,1,16.87,19,63.07,63.07,0,0,1,0,53.4Z"/><path d="M1547.27,217.14a65.67,65.67,0,0,0-24.52-29.35q-16.56-10.93-42.16-10.94-22.8,0-40.29,10.62a74.74,74.74,0,0,0-27.48,29.36q-10,18.73-10,43.41,0,23.42,11.24,41.38t31.39,28.11q20.14,10.15,47,10.15h42.78V309.27h-42.78a67,67,0,0,1-24.36-4.22A44.8,44.8,0,0,1,1450,292.56q-7.2-8.26-9.06-20.76h113a33.22,33.22,0,0,0,.94-6.25c.2-2.7.31-5.1.31-7.18Q1555.23,235.57,1547.27,217.14Zm-106.65,30.29a68.35,68.35,0,0,1,3.59-14.83,41.35,41.35,0,0,1,7.65-13.12,39,39,0,0,1,12.18-9.37,36.61,36.61,0,0,1,16.55-3.59,40.62,40.62,0,0,1,14.37,2.35,35.35,35.35,0,0,1,10.77,6.24,34.15,34.15,0,0,1,7.5,9.21,44.15,44.15,0,0,1,4.37,11.25,66.53,66.53,0,0,1,1.72,11.86Z"/><path d="M1714.66,162q7.65-8,19.52-8h74v-32.8h-78.08a59.22,59.22,0,0,0-52.31,29.52,62,62,0,0,0-8.28,30.76V339.88H1707V254.31h90.25v-32.8H1707v-40A27.12,27.12,0,0,1,1714.66,162Z"/><path d="M2036.17,180.6v91.51a41.15,41.15,0,0,1-5.46,21.39A39,39,0,0,1,2016,307.87a42,42,0,0,1-40.29,0,38.93,38.93,0,0,1-14.68-14.37,41.15,41.15,0,0,1-5.46-21.39V180.6h-35.92v91.82a72.72,72.72,0,0,0,7.19,32.48,64.37,64.37,0,0,0,20.29,24.2q13.13,9.54,31.24,13v61.21H2014V341.75a70,70,0,0,0,30.76-13,68.47,68.47,0,0,0,20.14-24.2,70.92,70.92,0,0,0,7.19-32.17V180.6Z"/><path d="M1334.12,177.41v27.24h-.31A51.76,51.76,0,0,0,1320.7,190a63.4,63.4,0,0,0-18.12-9.68,64.86,64.86,0,0,0-21.23-3.44q-22.8,0-40.14,10.15A71.85,71.85,0,0,0,1214,215.27q-9.82,18.12-9.83,42.47a100.58,100.58,0,0,0,5.77,34.82,79.62,79.62,0,0,0,16.56,27.33,70.92,70.92,0,0,0,26.07,17.64q15.3,6.11,34.67,6.09,24.36,0,43.1-10.3a72.55,72.55,0,0,0,29.2-29.51Q1370,284.6,1370,258.37V218.71Zm-6.24,110.31a45.55,45.55,0,0,1-16.55,18.58,44,44,0,0,1-24,6.72,44.56,44.56,0,0,1-24.36-6.72,45.41,45.41,0,0,1-16.55-18.58q-5.94-11.87-5.94-27.48,0-15.3,5.94-27.17a47.09,47.09,0,0,1,16.39-18.74,43.1,43.1,0,0,1,24.21-6.87,44.58,44.58,0,0,1,24.36,6.72,45.62,45.62,0,0,1,16.55,18.58q5.92,11.87,5.93,27.48T1327.88,287.72Z"/><polygon class="cls-1" points="1370.04 111.9 1370.04 218.71 1334.12 177.41 1334.12 111.9 1370.04 111.9"/><path class="cls-1" d="M1840.67,111.9v228h35.92v-228Z"/><polygon points="1876.59 339.88 1876.59 233.07 1840.67 274.37 1840.67 339.88 1876.59 339.88"/><polygon class="cls-1" points="290.85 407.09 239.4 355.64 367.37 114.89 493.35 354.32 444.54 407.09 387.15 381.37 354.83 381.37 290.85 407.09"/><polygon class="cls-2" points="387.15 381.37 354.83 381.37 367.37 114.89 387.15 381.37"/><path class="cls-3" d="M370.74,452.39c40.9-49.05,15.54-70.82,15.54-70.82l-15.08-.1h-.14l-15.08-.1s-25.64,21.44,14.61,71v.17l.07-.09.08.09Z"/><path d="M204.43,470.66c-27.52,0-38.82-15.23-38.82-42.75,0-11.79,1.47-23.08,3.44-35.38a224.87,224.87,0,0,0,3.44-37.34c.49-31.45-13.27-48.16-35.38-53.56V301H99.77v13c34.88,0,39.8,21.13,39.8,36.36,0,13.27-2,26.55-3.93,39.81s-3.94,27-3.94,40.29c0,49.62,30.47,67.31,71.25,67.31h10.32v-27Z"/><path class="cls-1" d="M213.27,106.07v27h-8.84c-29,0-38.82,15.72-38.82,42.26,0,11.3,1.47,23.09,3.44,34.89,2,12.28,3.44,24.07,3.44,37.34.49,31.45-13.27,47.17-35.38,53.07v.3H99.77v-12.1c34.88,0,39.8-19.16,39.8-36.36,0-13.76-2-27.51-3.93-41.27s-3.94-27-3.94-40.78c0-45.21,29.49-64.37,71.25-64.37Z"/><path d="M595.78,250.91c0-14.24,2-28.47,4.06-42.71s4.07-28,4.07-42.19c0-46.77-31-66.6-74.22-66.6H519.52v28h9.15c29.49.51,40.16,16.27,40.16,43.72,0,11.69-2,23.9-3.56,36.1-2,12.71-4.06,24.91-4.06,38.63,0,30.85,12.79,47.07,33.19,53.87l42.55.86v-12C600.86,288.52,595.78,268.7,595.78,250.91Z"/><path class="cls-1" d="M637,300.55v13.9c-36.09,0-41.17,21.87-41.17,37.63,0,13.72,2,27.44,4.06,41.17s4.07,28,4.07,41.68c0,51.35-32,69.66-73.71,69.66H519.52v-28h8.64c28.47-.51,40.67-15.76,40.67-44.23,0-12.2-2-23.89-3.56-36.6-2-12.19-4.06-24.91-4.06-38.64,0-32.53,14.23-49.81,36.6-55.41v-1c-1.16-.32-2.3-.65-3.41-1Z"/></g></svg>